inDegrees=yes
name=ik_MT_012005D6_009-001__orientations
DataType=double
version=3
OpenSimVersion=4.5
endheader
time	gndpitch	gndroll	gndyaw	spine_tx	spine_ty	spine_tz	pitch2	roll2	yaw2	aux7jnt_r3	aux7jnt_r1	aux7jnt_r2	aux6jnt_r3	aux6jnt_r1	aux6jnt_r2	aux5jnt_r3	aux5jnt_r1	aux5jnt_r2	aux4jnt_r3	aux4jnt_r1	aux4jnt_r2	aux3jnt_r3	aux3jnt_r1	aux3jnt_r2	pitch1	roll1	yaw1	aux1jnt_r3	aux1jnt_r1	aux1jnt_r2
5.009999999999938	4.21296440140691e-09	8.002416233845703e-10	4.440363815649541e-10	-3.97872216927308e-17	8.44526185968539e-17	-7.30666612219483e-19	0.03534012834717717	0.5759032319354974	-0.4712249650454251	0.3786454541688756	4.520560999691397	-5.075849300505033	0.4454641482951679	5.180505053960258	-5.91282099519123	0.4454641482951679	7.127308819516786	-5.91282099519123	0.3340981112213767	7.127308819516786	-5.91282099519123	0.2227320741475839	6.467383671027688	-2.537924650252517	0.4188181421771118	0.104560655536137	-0.6632090121752944	13.34205403371208	2.995442132670928	-4.217905639515561
5.019999999999937	4.21296440140691e-09	8.002416233845703e-10	4.440363815649541e-10	-3.97872216927308e-17	8.44526185968539e-17	-7.30666612219483e-19	0.0389292015403773	0.5759036999289593	-0.4712249510179037	0.417099933901778	4.520564673213046	-5.075849149406109	0.490704601795267	5.180509263769055	-5.912820819177159	0.490704601795267	7.127314611347328	-5.912820819177159	0.3680284513464486	7.127314611347328	-5.912820819177159	0.2453523008976335	6.467388926586443	-2.537924574703054	0.4188178658668358	0.1045617736793065	-0.6632090084099447	13.342045231451	2.995474165113178	-4.217905615568522
5.029999999999937	4.21296440140691e-09	8.002416233845703e-10	4.440363815649541e-10	-3.97872216927308e-17	8.44526185968539e-17	-7.30666612219483e-19	0.04242751627852807	0.5759040778347561	-0.4712249341315269	0.4545819984783362	4.520567639590229	-5.075848967512725	0.5348010402685341	5.180512663199344	-5.912820607290842	0.5348010402685341	7.127319288263808	-5.912820607290842	0.4011007802013999	7.127319288263808	-5.912820607290842	0.2674005201342671	6.467393170462227	-2.537924483756362	0.4188176213751925	0.1045625075298825	-0.6632089992610251	13.3420374428182	2.99549518838358	-4.217905557382824
5.039999999999937	4.21296440140691e-09	8.002416233845703e-10	4.440363815649541e-10	-3.97872216927308e-17	8.44526185968539e-17	-7.30666612219483e-19	0.04625345833307693	0.5759044282432307	-0.4712249174718173	0.4955743670582345	4.52057039012677	-5.07584878806091	0.5830272380348034	5.180515815279022	-5.912820398248689	0.5830272380348034	7.127323624876758	-5.912820398248689	0.4372704285261018	7.127323624876758	-5.912820398248689	0.2915136190174017	6.467397105543539	-2.537924394030455	0.4188173922828237	0.1045629499200184	-0.6632089901789838	13.34203014475144	2.995507861927419	-4.217905499622463
5.049999999999937	4.21296440140691e-09	8.002416233845703e-10	4.440363815649541e-10	-3.97872216927308e-17	8.44526185968539e-17	-7.30666612219483e-19	0.04998859352912394	0.5759047395387755	-0.4712249022373307	0.535593801871701	4.520572833645788	-5.075848623961035	0.6301088106462178	5.180518615520544	-5.912820207089903	0.6301088106462178	7.127327477432808	-5.912820207089903	0.4725816079846643	7.127327477432808	-5.912820207089903	0.3150544053231089	6.467400601387308	-2.537924311980517	0.4188171926777005	0.1045631809630832	-0.6632089822498564	13.34202378604328	2.995514480823671	-4.217905449194451
5.059999999999937	4.21296440140691e-09	8.002416233845703e-10	4.440363815649541e-10	-3.97872216927308e-17	8.44526185968539e-17	-7.30666612219483e-19	0.05412110049027164	0.575905108786594	-0.4712248858953955	0.5798708050502948	4.52057573206204	-5.075848447932158	0.682199274939017	5.180521937068478	-5.912820002035112	0.682199274939017	7.127332047199198	-5.912820002035112	0.5116494562042618	7.127332047199198	-5.912820002035112	0.3410996374695085	6.46740474803414	-2.537924223966079	0.4188169564047625	0.1045636591766041	-0.6632089748349451	13.34201625922916	2.995528180631899	-4.217905402036775
5.069999999999936	4.21296440140691e-09	8.002416233845703e-10	4.440363815649541e-10	-3.97872216927308e-17	8.44526185968539e-17	-7.30666612219483e-19	0.05951882110813683	0.5759054212864257	-0.4712248605627116	0.6377037125810779	4.520578185034126	-5.075848175058488	0.7502378229078065	5.180524748143097	-5.912819684166498	0.7502378229078065	7.127335914659361	-5.912819684166498	0.5626783671808541	7.127335914659361	-5.912819684166498	0.3751189114539032	6.467408257402028	-2.537924087529244	0.4188167226376792	0.1045633575002026	-0.6632089562141161	13.34200881224265	2.995519538239608	-4.217905283611213
5.079999999999936	4.21296440140691e-09	8.002416233845703e-10	4.440363815649541e-10	-3.97872216927308e-17	8.44526185968539e-17	-7.30666612219483e-19	0.06624811969152335	0.5759057300193192	-0.4712248326301637	0.7098035729243386	4.520580608437575	-5.075847874180109	0.8350609801024712	5.180527525332434	-5.912819333675402	0.8350609801024712	7.127339735500354	-5.912819333675402	0.6262957350768518	7.127339735500354	-5.912819333675402	0.4175304900512356	6.467411724467261	-2.537923937090055	0.4188165173451531	0.104562532269025	-0.6632089358919895	13.34200227235409	2.995495897107805	-4.217905154365664
5.089999999999936	4.21296440140691e-09	8.002416233845703e-10	4.440363815649541e-10	-3.97872216927308e-17	8.44526185968539e-17	-7.30666612219483e-19	0.07270706123491022	0.5759060182463882	-0.4712248058988422	0.7790067413486336	4.520582870880248	-5.075847586240864	0.9164762728045102	5.180530118062785	-5.912818998257012	0.9164762728045102	7.127343302563736	-5.912818998257012	0.687357204603381	7.127343302563736	-5.912818998257012	0.4582381364022551	6.467414961252431	-2.537923793120432	0.4188163264754837	0.1045617257560957	-0.6632089166893026	13.34199619192637	2.995472792214324	-4.217905032239578
5.099999999999936	4.21296440140691e-09	8.002416233845703e-10	4.440363815649541e-10	-3.97872216927308e-17	8.44526185968539e-17	-7.30666612219483e-19	0.07921237983582395	0.5759064519576133	-0.4712247772395648	0.8487068084213367	4.52058627530297	-5.075847277534443	0.9984761507188262	5.180534019487655	-5.91281863864708	0.9984761507188262	7.127348670121457	-5.91281863864708	0.7488571130391189	7.127348670121457	-5.91281863864708	0.4992380753594131	6.467419831822239	-2.537923638767221	0.4188159812883023	0.1045618489343859	-0.6632088999276604	13.34198519549245	2.995476321012395	-4.217904925638154
